<mxfile host="app.diagrams.net" modified="2024-07-03T18:45:12.861Z" agent="Mozilla/5.0 (X11; Linux x86_64) AppleWebKit/537.36 (KHTML, like Gecko) Chrome/126.0.0.0 Safari/537.36" version="24.6.4" etag="xDm6YNWnXYuaHZM7OE93" type="github">
  <diagram name="Page-1" id="Twm9W9HTtbM4XkpbnREE">
    <mxGraphModel>
      <root>
        <mxCell id="0" />
        <mxCell id="1" parent="0" />
      </root>
    </mxGraphModel>
  </diagram>
</mxfile>
